<?xml version="1.0" standalone="no"?><!DOCTYPE svg PUBLIC "-//W3C//DTD SVG 1.1//EN" "http://www.w3.org/Graphics/SVG/1.1/DTD/svg11.dtd"><svg t="1543224012469" class="icon" style="" viewBox="0 0 1024 1024" version="1.1" xmlns="http://www.w3.org/2000/svg" p-id="2928" xmlns:xlink="http://www.w3.org/1999/xlink" width="200" height="200"><defs><style type="text/css"></style></defs><path d="M510.976 212.992c-50.176 0-90.112 15.36-120.832 46.08s-48.128 72.704-49.152 111.616c-1.024 38.912 63.488 48.128 83.968 11.264 10.24-18.432 16.384-53.248 31.744-67.584 15.36-14.336 34.816-22.528 58.368-22.528 24.576 0 43.008 7.168 57.344 21.504 14.336 14.336 21.504 31.744 21.504 51.2 0 14.336-4.096 27.648-12.288 39.936-5.12 7.168-21.504 23.552-48.128 48.128-26.624 24.576-44.032 46.08-53.248 65.536-9.216 19.456-13.312 44.032-13.312 74.752 0 13.312 11.264 24.576 24.576 24.576h34.816c13.312 0 23.552-10.24 24.576-23.552 1.024-16.384 3.072-27.648 6.144-35.84 5.12-11.264 16.384-25.6 35.84-43.008 36.864-34.816 61.44-62.464 72.704-82.944 11.264-20.48 17.408-41.984 17.408-64.512 0-40.96-15.36-76.8-46.08-107.52-31.744-31.744-72.704-47.104-125.952-47.104zM512 690.176c-15.36 0-31.744 6.144-43.008 17.408s-17.408 26.624-17.408 43.008c0 15.36 6.144 31.744 17.408 43.008s26.624 17.408 43.008 17.408 31.744-6.144 43.008-17.408 17.408-26.624 17.408-43.008c0-15.36-6.144-31.744-17.408-43.008-11.264-10.24-26.624-17.408-43.008-17.408z" fill="#5CB2FF" p-id="2929"></path><path d="M512 0C229.376 0 0 229.376 0 512s229.376 512 512 512 512-229.376 512-512S794.624 0 512 0z m0 962.56C263.168 962.56 61.44 760.832 61.44 512S263.168 61.44 512 61.44s450.56 201.728 450.56 450.56-201.728 450.56-450.56 450.56z" fill="#5CB2FF" p-id="2930"></path></svg>